<svg width="1159" height="894" viewBox="0 0 1159 894" fill="none" xmlns="http://www.w3.org/2000/svg">
<path d="M238.292 66.3299C238.173 71.8231 237.876 77.2964 237.876 82.7896C237.876 89.9684 237.856 97.1473 237.836 104.326C237.797 137.444 237.717 170.76 232.073 203.402C231.875 204.512 231.776 205.881 232.667 206.575C233.499 207.209 234.687 206.872 235.697 206.535C238.906 205.444 242.331 204.691 245.698 205.028C248.768 205.345 251.698 206.535 254.788 206.555C256.154 206.555 257.6 206.198 258.828 205.563C258.729 205.444 258.649 205.345 258.55 205.206C257.204 203.382 254.728 196.758 260.154 198.166C261.64 198.543 262.353 195.132 262.194 193.605C262.135 192.971 261.877 192.297 262.135 191.721C262.511 190.869 263.66 190.77 264.531 190.452C265.878 189.937 266.808 188.529 266.749 187.081C268.195 187.259 269.977 187.279 270.71 186.03C271.898 184.047 269.165 180.953 270.908 179.426C271.66 178.772 272.809 178.95 273.74 178.593C274.967 178.117 275.66 176.789 276.769 176.075C277.878 175.361 279.958 175.976 279.562 177.245C281.443 175.936 284.453 178.197 286.176 176.689C286.552 176.372 286.77 175.916 286.988 175.48C288.176 173.14 289.364 170.8 290.553 168.44C290.83 167.904 291.087 167.369 291.444 166.893C291.879 166.298 292.434 165.802 292.969 165.287C296.513 161.856 300.751 157.077 301.682 152.159C302.514 147.657 303.365 143.135 304.197 138.634C304.415 137.444 304.672 136.175 305.544 135.342C306.435 134.489 307.88 134.192 308.395 133.061C309.504 130.662 305.108 127.905 306.672 125.783C306.95 125.406 307.346 125.169 307.722 124.891C310.039 123.106 310.395 119.655 309.603 116.82C308.811 114.004 307.128 111.525 305.999 108.808C302.276 99.8245 305.088 89.5917 307.94 80.2909C310.514 82.5318 315.366 80.1918 315.227 76.761C315.287 78.0897 310.712 77.4749 310.059 77.0585C308.811 76.2652 307.286 74.2623 306.375 73.0922C305.464 71.942 305.425 70.3159 305.861 68.9079C306.296 67.5197 307.148 66.2902 307.92 65.0607C310.356 61.2333 312.356 56.8903 312.198 52.349C312.158 51.2781 312 50.1874 312.198 49.1165C312.396 48.0655 312.93 47.0938 313.445 46.1617C314.871 43.6234 317.03 40.8272 317.901 38.0508C318.574 35.9487 318.752 35.0762 320.099 33.3707C320.812 32.4585 320.931 31.2488 320.99 30.0986C321.129 26.7868 320.555 23.6932 320.277 20.4409C320 17.3274 320.159 14.214 319.782 11.1005C316.752 11.041 315.227 10.8228 312.673 12.5283C312.534 12.6275 312.376 12.7266 312.217 12.7068C312.059 12.7068 311.94 12.5878 311.821 12.4688C309.881 10.5849 309.366 10.7435 306.791 11.2195C305.385 11.4773 301.979 12.3102 301.524 14.0156C301.959 12.3895 302.395 10.7634 302.831 9.15704C301.365 10.3469 299.444 10.9815 297.563 10.9022C297.88 8.76042 300.375 7.84819 302.276 6.83681C304.177 5.8056 305.841 3.04909 304.138 1.70058C303.544 1.24446 302.751 1.16514 301.999 1.12548C298.811 0.946999 295.622 0.96683 292.434 1.18497C290.612 1.32379 288.612 1.60142 287.443 2.98959C285.76 4.9727 286.651 8.08617 285.701 10.5056C284.513 13.5794 280.71 15.0072 279.522 18.0612C278.77 20.0046 279.086 22.4835 277.542 23.8717C276.591 24.7244 275.165 24.9029 274.235 25.7754C272.928 27.005 273.066 29.0674 272.571 30.7729C271.244 35.3736 265.422 40.847 261.996 43.9803C260.313 45.5271 258.273 47.5697 259.125 49.6916C257.917 49.8106 257.125 48.4621 256.748 47.2921C256.372 46.1221 255.857 44.7339 254.649 44.5157C254.194 44.4364 253.718 44.5554 253.283 44.4166C252.57 44.1985 252.233 43.425 251.698 42.8896C250.906 42.0765 249.718 41.8187 248.609 41.6006C245.579 41.0255 241.896 40.6685 239.955 43.0483C237.579 45.9832 239.638 50.3262 238.608 53.6975C238.589 53.6975 238.569 53.6975 238.549 53.6975C239.104 57.6835 238.292 62.3637 238.212 66.2704L238.292 66.3299Z" fill="#6D6E73" stroke="white" stroke-width="2" stroke-linecap="round" stroke-linejoin="round"/>
<path d="M222.37 318.759C222.924 317.688 223.855 316.875 224.786 316.082C226.667 314.456 228.548 312.829 230.43 311.203C231.281 310.47 232.311 309.696 233.4 309.994C234.073 310.172 234.608 310.767 235.301 310.747C236.291 310.747 236.787 309.577 237.044 308.625C238.173 304.441 239.262 299.82 237.341 295.933C235.618 292.423 231.499 289.231 232.945 285.601C234.014 282.944 237.876 281.358 237.301 278.561C237.143 277.808 236.668 277.153 236.39 276.44C235.4 273.802 237.46 270.887 239.975 269.638C242.49 268.388 245.401 268.23 248.094 267.436C252.392 266.167 256.035 263.351 259.56 260.575C271.422 251.274 283.285 241.973 295.127 232.692C297.226 231.046 299.424 229.281 300.415 226.803C300.771 225.93 300.989 224.938 301.741 224.363C302.375 223.868 303.227 223.828 303.999 223.669C306.257 223.213 308.197 221.646 309.306 219.644C308.989 219.445 308.692 219.247 308.395 219.029C304.791 216.272 302.177 212.227 298.137 210.184C296.196 209.212 294.038 208.736 292.157 207.666C289.483 206.139 287.641 203.501 285.186 201.617C282.75 199.753 279.007 198.781 276.73 200.864C280.928 204.036 285.126 207.19 289.325 210.363C287.186 209.906 285.067 209.431 282.928 208.974C284.017 213.417 282.374 218.414 278.849 221.329C278.057 221.706 277.304 220.556 277.462 219.703C277.621 218.83 278.235 218.097 278.354 217.204C278.552 215.538 276.868 214.249 275.264 213.754C273.66 213.258 271.858 213.159 270.551 212.108C268.888 210.799 268.214 208.161 266.155 207.666C262.392 206.753 261.838 209.411 258.828 205.583C257.6 206.238 256.174 206.595 254.788 206.575C251.718 206.555 248.768 205.345 245.698 205.048C242.312 204.711 238.905 205.464 235.697 206.555C234.707 206.892 233.519 207.249 232.667 206.595C231.756 205.901 231.875 204.532 232.073 203.422C237.717 170.78 237.777 137.464 237.836 104.346C237.836 97.1671 237.856 89.9883 237.876 82.8095C237.876 77.3163 238.193 71.8429 238.292 66.3497C238.371 62.443 239.183 57.7629 238.628 53.7769C220.884 56.1764 202.071 55.522 184.149 55.7005C165.91 55.8789 147.652 55.6211 129.413 54.9271C123.868 54.7089 118.343 54.1933 112.798 54.1536C110.144 54.1536 99.7674 53.3009 97.9257 55.3038C97.4306 55.8393 97.391 56.6524 97.4108 57.4059C97.4108 70.4746 97.2919 83.682 96.9157 96.83C96.8761 98.2182 96.9157 97.9009 95.6285 98.4363C95.2918 98.5751 94.9155 98.595 94.5591 98.595C85.2119 98.7933 75.845 98.9916 66.4978 99.1899C64.8739 99.2296 63.2698 99.2494 61.646 99.289C61.646 100.836 63.5669 101.589 65.1116 101.748C66.8939 101.927 75.1122 104.802 75.9044 106.389C76.4391 107.459 76.0034 108.907 76.7955 109.819C77.6471 110.831 79.3105 110.434 80.4987 110.989C82.8949 112.1 82.3602 116.245 84.7168 117.415C85.6278 117.871 86.717 117.712 87.6675 118.069C89.7469 118.842 90.2816 121.44 90.7569 123.602C91.2519 125.763 92.658 128.302 94.8561 128.024C96.4404 127.806 97.9851 126.101 99.3317 126.953C100.322 127.568 100.203 129.036 100.758 130.047C102.124 132.585 106.243 131.138 108.659 132.724C111.689 134.707 116.026 136.552 117.788 139.863C119.333 142.759 122.561 145.575 123.016 148.926C123.333 151.187 120.838 154.538 123.749 156.006C127.017 157.672 125.829 159.754 128.304 161.003C129.155 161.439 131.136 160.309 132.185 160.507C134.007 160.864 135.374 162.411 137.017 163.165C138.542 163.859 140.305 163.839 141.889 164.414C143.473 164.989 144.959 166.576 144.463 168.182C143.176 167.924 142.008 169.233 141.889 170.522C141.77 171.831 142.424 173.06 143.077 174.191C141.176 174.092 139.255 175.242 138.483 176.987C137.691 178.732 138.087 180.933 139.414 182.302C138.206 181.846 137.176 183.531 137.493 184.761C137.829 186.01 138.859 186.922 139.473 188.053C140.087 189.183 140.067 190.928 138.859 191.404C136.74 192.217 135.235 192.753 132.978 192.713C102.124 192.178 71.2506 191.622 40.397 191.087C28.515 212.128 17.2271 232.732 5.34515 253.753C4.85007 254.625 4.35498 255.498 4.17675 256.49C3.68167 259.167 5.6224 261.665 7.70174 263.391C9.8009 265.116 12.2565 266.584 13.5239 269.003C14.7913 271.402 13.9794 275.151 11.3059 275.646C10.494 275.805 9.60286 275.626 8.83053 275.944C5.84023 277.213 9.12758 282.23 7.4245 285.007C6.94922 285.78 6.13728 286.276 5.54318 286.97C3.2658 289.746 5.70161 293.712 6.67197 297.143C7.62253 300.455 6.87 303.925 5.12731 306.841C3.8797 308.943 0.374516 311.025 2.6519 313.524C5.58279 316.736 9.40483 318.957 12.9496 321.476C17.445 324.669 21.5641 328.357 25.802 331.927C34.7729 339.463 44.3577 346.403 54.8534 351.678C60.1013 354.316 65.5868 356.517 71.2506 358.124C73.7062 358.818 75.7459 360.047 78.1818 360.781C81.1919 361.693 84.2614 362.407 87.3705 362.903C88.6379 363.101 89.9251 363.26 91.2123 363.399C105.114 364.747 119.254 362.566 133.077 364.648C144.087 366.314 154.405 370.597 164.445 375.555C164.405 375.238 164.366 374.94 164.306 374.623C164.029 373.175 163.633 371.747 163.673 370.28C163.732 368.812 164.326 367.266 165.594 366.532C166.445 366.036 167.554 365.897 168.168 365.124C168.723 364.43 168.683 363.478 168.94 362.645C169.752 360.007 173.04 359.294 175.337 357.747C177.238 356.458 178.545 354.475 180.208 352.888C181.872 351.302 184.268 350.072 186.427 350.885C187.496 351.282 188.328 352.115 189.358 352.61C190.387 353.106 191.833 353.106 192.427 352.135C193.279 350.746 193.437 348.902 194.308 347.375C195.338 345.57 196.408 343.944 197.932 342.497C200.586 339.998 204.052 338.312 207.715 338.035C208.25 337.995 208.844 337.955 209.26 337.618C210.092 336.964 209.814 335.655 209.478 334.644C208.844 332.839 207.715 330.677 205.794 330.777C205.101 330.816 204.309 331.153 203.794 330.697C202.626 329.666 205.398 328.337 205.418 326.771C205.418 326.096 204.883 325.541 204.666 324.907C204.19 323.419 206.171 321.853 207.497 322.666C208.131 323.042 208.567 323.816 209.319 323.875C210.706 324.014 211.062 321.813 212.349 321.258C213.874 320.583 215.637 322.646 217.142 321.932C217.657 321.694 217.993 321.178 218.488 320.921C219.201 320.564 220.033 320.802 220.785 321.059C221.102 321.159 221.399 321.277 221.716 321.396C221.716 320.484 221.914 319.592 222.33 318.779L222.37 318.759Z" fill="#DE1519" stroke="white" stroke-width="2" stroke-linecap="round" stroke-linejoin="round"/>
<path d="M698.937 275.071C696.422 274.635 693.887 274.02 691.669 272.771C689.451 271.521 687.53 269.538 686.797 267.099C686.144 264.898 686.46 262.359 685.213 260.436C684.559 259.424 683.549 258.71 682.579 258.016C679.807 256.053 677.014 254.11 674.242 252.146C668.816 248.339 661.449 245.741 654.934 244.472C654.894 247.605 657.726 250.044 660.657 251.175C663.568 252.285 666.796 252.563 669.628 253.911C670.638 254.387 671.667 255.081 672.083 256.132C672.955 258.314 670.836 260.515 668.796 261.665C667.707 262.28 666.42 262.815 665.271 262.379C664.103 261.943 663.667 259.999 664.796 259.484C666.419 260.872 669.232 258.948 669.014 256.846C668.796 254.724 666.439 253.336 664.32 253.515C662.201 253.693 660.36 255.062 658.894 256.608C657.191 258.393 654.597 260.674 652.696 259.087C652.102 258.611 651.805 257.858 651.488 257.164C649.072 251.908 644.279 248.24 639.645 244.789C638.18 243.698 636.616 242.548 634.794 242.31C632.972 242.072 630.853 243.064 630.516 244.888C630.021 247.665 633.546 249.231 636.318 249.767C638.556 250.203 640.794 250.639 643.052 251.056C644.24 251.294 645.626 251.67 646.022 252.821C646.497 254.149 645.111 255.557 643.705 255.676C642.299 255.795 640.972 255.062 639.744 254.348C637.269 252.92 634.813 251.492 632.338 250.064C629.546 248.438 626.377 246.217 626.417 242.984C626.417 241.894 626.833 240.863 626.852 239.772C626.912 236.758 623.407 234.298 620.595 235.369C621.783 233.466 624.793 233.089 626.417 234.636C627.15 235.33 627.585 236.301 628.397 236.877C631.269 238.919 635.645 234.636 638.556 236.619C639.428 237.214 639.883 238.225 640.438 239.117C642.695 242.628 646.874 244.254 650.795 245.681C652.498 246.296 655.429 245.681 654.656 244.055C641.665 237.511 629.823 228.706 619.802 218.136C617.763 215.975 615.703 213.694 613.01 212.425C611.129 211.532 609.029 211.215 606.99 210.898C599.643 209.768 592.315 208.637 584.968 207.527C584.097 210.303 588.058 211.989 590.949 211.83C593.84 211.671 597.662 211.572 598.593 214.329C594.514 214.408 590.454 214.507 586.374 214.586C585.067 214.606 583.681 214.626 582.572 213.952C581.443 213.278 580.81 211.651 581.602 210.62C581.998 210.105 582.731 209.728 582.75 209.073C582.75 208.399 582.018 208.003 581.404 207.765C573.621 204.79 565.819 201.795 558.036 198.821C556.174 198.107 554.214 197.373 552.234 197.611C549.085 197.968 546.728 200.566 544.134 202.41C536.965 207.507 527.4 206.952 518.647 206.178C516.469 205.98 514.251 205.781 512.231 204.929C510.191 204.056 508.508 202.589 506.686 201.339C499.438 196.421 490.348 195.37 481.655 194.458C480.862 194.379 479.932 194.339 479.397 194.934C478.149 196.302 480.684 198.047 482.526 197.829C484.368 197.611 486.883 197.274 487.497 199.019C486.427 202.807 482.348 205.484 478.446 204.968C472.624 204.175 466.386 205.762 461.772 209.43C458.267 212.227 454.88 216.451 450.445 215.776C448.563 215.499 446.939 214.329 445.117 213.714C439.83 211.949 434.028 215.241 428.562 214.21C425.71 213.654 422.918 211.949 420.106 212.643C418.601 213.02 417.353 214.031 416.007 214.824C410.264 218.136 404.243 215.4 398.263 213.992C391.193 212.346 384.103 210.7 377.034 209.034C376.004 208.796 374.796 208.597 374.004 209.292C373.39 209.827 373.172 210.819 372.419 211.156C371.825 211.433 371.132 211.195 370.479 211.156C368.696 211.116 367.37 212.703 366.34 214.15C363.785 211.79 361.231 209.411 358.676 207.051C358.161 206.575 357.626 206.059 357.448 205.385C357.191 204.393 357.587 202.946 356.636 202.569C355.587 202.152 354.913 203.818 353.864 204.254C352.814 204.691 351.725 203.818 350.715 203.322C348.081 202.053 344.497 203.838 343.903 206.694C339.289 207.07 334.001 206.833 329.387 207.209C330.357 209.133 331.308 211.076 332.278 213C328.714 212.683 324.476 212.683 322.396 215.598C321.644 216.649 321.327 217.938 320.594 218.989C318.238 222.42 313.01 221.864 309.386 219.624C308.277 221.626 306.336 223.193 304.078 223.649C303.306 223.808 302.454 223.867 301.821 224.343C301.088 224.918 300.85 225.91 300.494 226.783C299.504 229.261 297.305 231.026 295.206 232.672C283.344 241.973 271.482 251.274 259.64 260.555C256.115 263.331 252.471 266.147 248.173 267.416C245.48 268.21 242.569 268.368 240.054 269.618C237.539 270.867 235.46 273.782 236.47 276.42C236.747 277.153 237.242 277.788 237.381 278.541C237.955 281.338 234.093 282.924 233.024 285.582C231.578 289.211 235.678 292.423 237.42 295.913C239.341 299.8 238.252 304.421 237.123 308.605C236.866 309.557 236.371 310.707 235.381 310.727C234.687 310.727 234.133 310.152 233.479 309.974C232.41 309.676 231.36 310.45 230.509 311.183C228.628 312.809 226.746 314.436 224.865 316.062C223.954 316.855 223.023 317.668 222.449 318.739C222.013 319.552 221.855 320.444 221.835 321.357C226.212 322.884 230.489 324.708 234.588 326.85C235.519 327.346 236.608 327.861 237.598 327.465C239.302 326.79 239.935 323.736 241.678 324.292C242.945 324.688 242.787 326.533 243.381 327.742C244.193 329.329 246.312 329.587 248.094 329.646C247.263 330.816 248.094 332.462 249.124 333.473C250.154 334.465 251.481 335.338 251.857 336.726C252.114 337.678 251.916 338.828 252.629 339.502C253.798 340.593 255.659 339.086 257.243 339.304C259.244 339.581 259.719 342.159 260.65 343.964C262.273 347.117 266.808 348.327 269.779 346.403C270.413 348.168 270.294 350.171 269.442 351.857C270.749 350.885 271.838 353.582 273.403 354.038C274.393 354.336 275.403 353.622 276.433 353.582C278.255 353.503 279.582 355.407 281.364 355.783C283.186 356.14 285.166 354.831 286.869 355.585C288.988 356.517 288.79 359.512 288.572 361.812C288.374 364.112 289.503 367.305 291.761 366.809C292.909 366.571 293.622 365.401 294.612 364.787C296.711 363.498 299.543 364.787 301.86 363.993C304.613 363.041 306.415 359.254 309.267 359.869C308.514 358.778 307.96 357.568 307.643 356.299C311.94 355.129 317.307 354.237 320.198 357.628C322.02 359.769 322.495 364.112 325.664 364.886C326.238 365.025 326.852 364.906 327.426 364.806C331.149 364.093 334.853 363.359 338.576 362.645C339.348 362.486 340.18 362.347 340.873 362.724C341.764 363.22 342.021 364.33 342.615 365.163C344.121 367.305 347.764 367.404 348.755 369.824C349.349 371.291 348.675 372.917 348.081 374.385C346.774 377.617 345.804 381.008 344.952 384.4C344.338 386.819 343.764 389.278 343.249 391.717C343.012 392.788 342.932 394.176 343.863 394.731C344.655 395.188 345.665 394.771 346.556 395.029C347.982 395.426 348.319 397.488 347.527 398.757C346.735 400.026 345.289 400.681 343.942 401.315C342.932 401.791 341.863 402.347 341.15 403.179C343.229 404.092 345.487 405.559 346.576 405.916C347.329 407.205 348.378 407.126 349.784 406.59C351.19 406.055 352.161 404.687 352.517 403.239C352.755 402.267 352.735 401.216 353.171 400.304C353.606 399.392 354.795 398.737 355.626 399.273C357.25 400.344 355.151 403.695 356.874 404.627C357.29 404.845 357.805 404.806 358.28 404.845C360.062 404.984 361.468 406.313 363.072 407.086C364.676 407.86 367.112 407.76 367.686 406.075C367.865 405.539 367.805 404.964 367.964 404.429C368.3 403.239 369.627 402.545 370.875 402.565C372.103 402.565 373.271 403.14 374.34 403.755C374.974 404.112 375.687 404.845 375.251 405.42C374.934 405.876 374.241 405.738 373.687 405.658C371.806 405.381 369.904 406.293 368.518 407.622C367.152 408.95 366.201 410.656 365.29 412.322C368.934 415.217 370.835 419.976 371.41 424.617C371.489 425.232 371.568 425.926 372.023 426.342C372.796 427.036 373.964 426.54 374.974 426.302C375.984 426.064 377.45 426.659 377.093 427.631C377.806 430.348 379.39 432.827 381.529 434.651C381.192 434.651 380.875 434.651 380.539 434.711C380.598 434.711 380.677 434.75 380.737 434.77C382.499 435.008 384.222 434.354 385.945 433.937C388.777 433.243 391.906 433.085 394.758 433.739C396.698 434.175 398.956 435.861 400.936 435.782C402.362 435.722 403.471 434.612 404.441 433.561C407.353 430.447 410.501 426.659 409.769 422.475C409.57 421.265 409.036 420.115 408.917 418.886C408.561 414.959 413.115 411.806 416.918 412.758C418.997 413.273 421.037 414.701 423.076 414.067C426.027 413.154 426.146 409.069 425.671 406.015C424.779 400.125 423.888 394.236 422.977 388.326C422.462 384.875 419.987 382.198 420.66 378.668C421.155 376.09 423.314 373.631 425.928 373.77C427.255 373.849 428.502 374.563 429.849 374.583C432.146 374.623 434.146 372.6 436.424 372.878C437.949 373.076 439.216 374.266 440.741 374.484C442.107 374.682 443.454 374.068 444.82 373.949C448.068 373.691 451.415 376.249 454.385 374.9C456.702 373.849 457.415 370.994 458.346 368.614C459.97 364.469 462.96 360.939 466.525 358.282C468.683 356.676 471.139 356.18 471.218 353.483C472.565 351.46 475.258 350.469 477.575 351.103C477.872 351.183 478.149 351.302 478.347 351.52C479.06 352.353 477.833 353.503 477.793 354.613C477.753 355.347 478.268 355.982 478.763 356.537C481.001 359.095 483.556 361.832 486.922 362.248C487.655 362.347 488.447 362.308 489.101 362.665C489.794 363.041 490.19 363.755 490.645 364.39C492.586 367.166 495.854 368.971 499.24 369.13C500.527 369.189 502.25 368.436 501.874 367.206C501.755 366.829 501.458 366.532 501.2 366.234C499.458 364.212 499.517 360.801 501.497 359.016C502.171 358.421 502.983 358.004 503.795 357.628C507.438 355.863 511.082 354.098 514.726 352.333C515.38 352.015 516.053 351.678 516.489 351.103C516.845 350.607 517.003 349.993 517.281 349.457C518.132 347.791 521.123 346.344 522.826 347.097C524.964 345.61 526.41 343.191 526.707 340.613C526.846 339.324 526.846 337.797 527.915 337.063C528.549 336.627 529.381 336.646 530.093 336.349C531.44 335.774 532.034 334.187 533.163 333.255C536.094 330.836 541.104 333.731 544.114 331.411C545.421 330.4 545.956 328.496 545.342 326.969C544.728 325.442 543.045 324.411 541.401 324.569C540.134 321.674 544.827 319.651 545.58 316.577C546.134 314.336 544.51 311.62 545.976 309.855C547.718 308.843 548.352 312.968 550.352 313.226C551.105 313.325 551.778 312.81 552.372 312.314C553.62 311.243 554.927 310.112 555.521 308.585C556.095 307.039 555.66 304.976 554.155 304.322C553.798 304.163 553.362 304.064 553.164 303.727C552.927 303.33 553.145 302.834 553.343 302.418C555.541 298.313 558.729 294.743 562.571 292.126C565.284 290.262 568.809 288.854 571.799 290.222C574.968 291.67 576.136 295.457 577.78 298.531C579.641 301.962 582.018 302.696 585.543 303.072C586.889 303.231 591.939 304.58 592.533 302.676C591.721 305.294 595.365 307.396 597.94 306.483C600.514 305.571 602.118 303.092 603.9 301.01C604.336 300.494 604.95 299.939 605.623 300.118C606.277 300.276 606.534 301.03 606.911 301.585C608.178 303.489 611.683 302.993 612.396 300.812C612.97 298.967 612.495 295.973 614.416 295.933C615.822 298.095 618.416 299.424 620.991 299.285C622.476 299.205 624.001 298.61 624.813 297.361C625.625 296.112 625.387 294.188 624.1 293.454C626.159 294.307 643.19 298.293 640.497 292.304C641.309 294.109 643.963 294.129 645.685 293.177C647.408 292.225 648.775 290.619 650.636 289.964C651.646 289.607 652.775 289.548 653.825 289.786C654.28 289.905 654.736 290.063 655.191 289.944C656.656 289.528 655.845 287.029 656.894 285.919C658.577 284.134 662.003 287.981 663.726 286.236C664.261 285.681 664.301 284.828 664.617 284.134C665.608 281.933 669.034 281.853 670.202 279.751C670.657 278.958 670.697 278.006 671.053 277.153C671.41 276.301 672.361 275.567 673.192 275.963C673.945 276.32 674.064 277.371 674.717 277.867C675.489 278.482 676.658 278.085 677.391 277.431C678.123 276.757 678.599 275.864 679.351 275.25C681.054 273.842 683.985 274.436 685.035 276.38C687.807 277.114 690.659 277.867 693.53 277.59C695.57 277.391 697.61 276.558 699.055 275.15C698.996 275.15 698.917 275.111 698.857 275.111L698.937 275.071Z" fill="#DE1519" stroke="white" stroke-width="2" stroke-linecap="round" stroke-linejoin="round"/>
<path d="M343.883 401.296C345.229 400.661 346.675 400.007 347.467 398.737C348.259 397.468 347.923 395.406 346.497 395.009C345.626 394.751 344.596 395.188 343.804 394.712C342.853 394.156 342.952 392.768 343.19 391.697C343.705 389.238 344.279 386.799 344.893 384.38C345.744 380.989 346.715 377.617 348.022 374.365C348.616 372.898 349.289 371.252 348.695 369.804C347.705 367.385 344.061 367.285 342.556 365.144C341.982 364.311 341.704 363.18 340.813 362.704C340.12 362.328 339.288 362.466 338.516 362.625C334.793 363.339 331.09 364.073 327.367 364.787C326.773 364.906 326.179 365.005 325.604 364.866C322.436 364.093 321.961 359.75 320.139 357.608C317.247 354.217 311.881 355.089 307.583 356.279C307.92 357.548 308.475 358.778 309.207 359.849C306.356 359.234 304.553 363.002 301.801 363.974C299.464 364.787 296.652 363.478 294.553 364.767C293.543 365.382 292.85 366.552 291.701 366.79C289.444 367.266 288.295 364.093 288.513 361.792C288.711 359.492 288.929 356.477 286.81 355.565C285.107 354.812 283.126 356.14 281.304 355.764C279.522 355.407 278.195 353.483 276.373 353.562C275.344 353.602 274.334 354.316 273.343 354.018C271.779 353.562 270.69 350.865 269.383 351.837C270.214 350.171 270.353 348.148 269.719 346.383C266.749 348.327 262.214 347.117 260.59 343.944C259.659 342.14 259.184 339.562 257.184 339.284C255.6 339.066 253.738 340.593 252.57 339.482C251.857 338.808 252.035 337.658 251.797 336.706C251.421 335.318 250.094 334.445 249.065 333.454C248.035 332.462 247.203 330.816 248.035 329.626C246.252 329.567 244.134 329.329 243.322 327.723C242.727 326.533 242.886 324.688 241.619 324.272C239.876 323.717 239.222 326.771 237.539 327.445C236.549 327.842 235.46 327.326 234.529 326.83C230.133 324.53 225.558 322.586 220.845 321C220.092 320.742 219.261 320.504 218.548 320.861C218.053 321.119 217.716 321.615 217.201 321.872C215.696 322.586 213.933 320.544 212.409 321.198C211.141 321.753 210.765 323.955 209.379 323.816C208.646 323.736 208.191 322.983 207.557 322.606C206.23 321.793 204.23 323.36 204.725 324.847C204.923 325.482 205.477 326.037 205.477 326.711C205.458 328.258 202.685 329.606 203.854 330.638C204.368 331.094 205.161 330.776 205.854 330.717C207.755 330.598 208.903 332.76 209.537 334.584C209.894 335.595 210.171 336.904 209.319 337.559C208.884 337.896 208.309 337.916 207.775 337.975C204.111 338.273 200.645 339.938 197.992 342.437C196.467 343.865 195.398 345.511 194.368 347.316C193.496 348.843 193.338 350.687 192.486 352.075C191.892 353.047 190.447 353.027 189.417 352.551C188.387 352.055 187.555 351.222 186.486 350.826C184.328 350.013 181.931 351.242 180.268 352.829C178.604 354.415 177.297 356.418 175.396 357.687C173.119 359.234 169.831 359.948 169 362.585C168.742 363.418 168.762 364.39 168.227 365.064C167.614 365.838 166.505 365.957 165.653 366.472C164.386 367.206 163.791 368.753 163.732 370.22C163.673 371.688 164.069 373.116 164.366 374.563C164.425 374.861 164.465 375.178 164.504 375.495C168.089 377.26 171.614 379.105 175.139 380.949C180.525 383.765 186.347 387.077 188.348 392.828C201.259 396.12 215.181 393.502 228.014 397.151C236.489 399.57 243.955 404.548 251.758 408.613C264.353 415.157 278.156 419.381 292.275 421.008C288.117 415.157 280.393 412.104 273.363 413.512C277.324 411.171 282.671 411.409 286.394 414.106C287.542 414.939 288.592 415.99 289.939 416.347C291.305 416.704 293.107 415.951 293.147 414.543C293.503 416.625 293.939 418.866 295.464 420.333C296.989 421.821 299.959 421.92 300.91 420.036C312.297 422.416 324.06 422.951 335.605 421.603C335.407 420.254 334.714 418.985 333.664 418.073C337.427 416.466 340.893 414.106 343.784 411.191C341.704 410.2 336.932 407.602 336.773 404.964C336.595 401.851 338.734 402.128 341.11 403.18C341.823 402.347 342.893 401.791 343.903 401.315L343.883 401.296Z" fill="#DE1519" stroke="white" stroke-width="2" stroke-linecap="round" stroke-linejoin="round"/>
<path d="M1155.7 829.606C1157.05 822.189 1151.52 815.922 1147.38 809.636C1147.01 809.061 1146.59 808.466 1145.98 808.129C1145.18 807.712 1144.17 807.792 1143.42 807.276C1142.93 806.939 1142.65 806.364 1142.43 805.809C1141.58 803.508 1141.74 800.97 1141.3 798.55C1140.89 796.131 1139.58 793.533 1137.2 792.938C1136.59 792.78 1135.92 792.76 1135.34 792.482C1134.06 791.848 1133.76 790.063 1134.23 788.714C1134.71 787.366 1135.74 786.295 1136.61 785.145C1137.48 783.994 1138.21 782.606 1137.94 781.178C1137.8 780.405 1137.4 779.453 1138 778.938C1138.51 778.481 1139.3 778.838 1139.98 778.898C1141.72 779.057 1143.09 776.716 1142.08 775.289C1139.7 776.439 1136.49 776.26 1134.02 775.328C1132.31 774.694 1130.67 773.365 1130.45 771.56C1130.33 770.589 1130.63 769.557 1130.27 768.645C1129.92 767.733 1128.37 767.297 1128.05 768.229C1127.7 765.155 1125.42 762.379 1122.45 761.466C1122.23 762.002 1122.01 762.537 1121.8 763.053C1120.49 762.299 1120.27 760.435 1119.14 759.424C1118.63 758.968 1117.97 758.71 1117.4 758.353C1115.78 757.322 1114.91 755.497 1114.09 753.772C1113.88 753.316 1113.66 752.84 1113.44 752.384C1112.87 751.154 1112.29 749.925 1111.68 748.715C1109.8 745.066 1107.36 741.457 1103.68 739.633C1103.93 741.338 1104.17 743.043 1104.43 744.749C1100.61 739.375 1096.07 734.298 1090.25 731.224C1089.1 730.609 1087.91 730.094 1086.73 729.558C1085.85 729.162 1084.98 728.765 1084.11 728.368C1082.76 727.774 1081.4 727.198 1080.03 726.623C1074.45 724.303 1068.84 721.963 1063.26 719.643C1059.77 718.195 1056.31 716.748 1052.82 715.32C1052.15 715.042 1051.4 714.764 1050.7 714.983C1050.05 715.181 1049.61 715.796 1048.98 716.073C1048.39 716.331 1047.69 716.272 1047.06 716.192C1044.68 715.875 1042.37 715.24 1040.15 714.368C1039.63 714.169 1039.12 713.932 1038.56 713.852C1037.85 713.753 1037.14 713.892 1036.44 714.05C1033.59 714.645 1030.74 715.24 1027.87 715.835C1027.16 715.974 1026.44 716.133 1025.73 716.014C1024.23 715.776 1023.08 714.467 1021.59 714.13C1020.3 713.832 1019.14 714.507 1017.85 714.427C1016.5 714.328 1014.9 713.614 1013.67 713.118C1013.51 713.059 1013.35 712.98 1013.23 712.841C1013.1 712.662 1013.08 712.404 1013.08 712.186C1013.08 710.996 1013.12 709.688 1013.95 708.855C1014.7 708.101 1015.85 707.962 1016.9 708.022C1018.09 708.081 1019.31 708.3 1020.44 707.903C1021.57 707.506 1022.44 706.138 1021.83 705.107C1021.41 704.432 1020.54 704.194 1019.75 704.135C1015.77 703.778 1011.89 705.702 1007.89 705.662C1007.1 705.662 1006.28 705.563 1005.51 705.721C1004.6 705.9 1003.77 706.416 1002.9 706.753C1002.03 707.09 1000.98 707.248 1000.18 706.753C995.59 703.897 989.451 703.163 984.085 702.667C983.49 702.608 982.857 702.568 982.302 702.767C981.807 702.945 981.411 703.322 980.936 703.58C979.352 704.413 977.094 703.282 976.797 701.517C976.737 701.16 976.737 700.744 976.46 700.486C976.163 700.208 975.708 700.248 975.331 700.308C972.797 700.704 970.282 701.18 967.767 701.755C967.014 701.934 966.242 702.132 965.667 702.628C965.093 703.124 964.796 704.036 965.232 704.67C965.509 705.067 966.024 705.325 966.103 705.801C966.143 706.059 966.044 706.316 965.945 706.554C964.657 709.648 962.578 712.424 959.964 714.507C958.915 715.339 957.746 716.113 957.053 717.263C956.677 717.918 956.32 718.77 955.568 718.81C955.152 718.83 954.795 718.572 954.419 718.374C952.934 717.541 950.993 717.6 949.567 718.532C949.765 719.167 949.963 719.801 950.161 720.436C949.112 720.317 948.399 721.487 948.201 722.518C948.003 723.55 947.983 724.72 947.231 725.453C947.052 725.632 946.795 725.79 946.537 725.771C945.943 725.731 945.785 724.938 945.785 724.343C945.785 723.351 945.785 722.34 945.785 721.348C945.785 719.881 943.805 719.563 942.577 720.377C941.349 721.19 940.755 722.657 940.022 723.926C938.992 725.731 937.586 727.278 936.2 728.805C933.764 731.482 931.071 734.318 927.526 735.032C926.041 735.329 924.477 735.25 923.011 735.646C921.506 736.063 920.179 736.995 918.694 737.471C915.981 738.343 913.03 737.669 910.198 737.887C906.416 738.185 902.95 740.089 899.623 741.933C895.544 744.194 891.484 746.474 887.405 748.735C884.038 750.619 880.454 752.701 878.85 756.211C878.374 757.242 877.939 758.512 876.83 758.809C876.176 758.988 875.503 758.73 874.849 758.631C872.057 758.155 869.463 759.999 866.987 761.387C859.541 765.631 850.65 766.305 842.095 766.623C840.273 766.682 838.966 766.682 837.362 766.107C835.777 765.532 834.649 764.877 832.886 764.719C829.44 764.401 825.777 765.294 822.509 763.807C820.133 762.716 818.509 760.534 816.964 758.432C814.628 755.239 812.311 752.047 809.974 748.854C808.924 747.426 807.815 745.919 806.172 745.245C805.122 744.808 803.934 744.749 802.845 744.412C801.755 744.075 800.666 743.281 800.528 742.131C801.3 742.27 801.934 741.338 801.795 740.545C801.656 739.771 801.023 739.176 800.389 738.681C798.943 737.511 797.399 736.499 795.775 735.627C795.359 735.408 794.824 735.21 794.448 735.488C793.814 735.964 794.488 736.955 795.2 737.352C795.894 737.729 796.805 738.383 796.468 739.117C794.785 738.403 792.824 738.403 791.141 739.117C794.507 742.706 798.23 745.978 802.231 748.874C803.221 749.588 804.29 750.361 804.766 751.511C805.221 752.661 804.706 754.268 803.498 754.466C802.983 754.545 802.468 754.367 801.993 754.208C799.735 753.395 797.478 752.582 795.22 751.789C794.725 751.61 794.191 751.432 793.715 751.61C792.527 752.047 792.745 753.97 791.695 754.684C790.507 755.477 789.101 754.109 787.715 753.772C785.319 753.197 782.764 755.894 780.586 754.764C779.219 754.069 778.863 752.245 777.675 751.273C776.427 750.262 774.645 750.421 773.021 750.421C771.417 750.421 769.496 749.925 768.981 748.398C768.446 746.752 769.872 744.749 768.862 743.341C768.585 742.964 768.189 742.706 767.872 742.389C766.783 741.318 766.704 739.375 767.694 738.205C768.704 737.035 770.625 736.816 771.852 737.749C772.268 738.046 772.605 738.462 773.08 738.641C774.229 739.077 775.457 737.848 775.457 736.618C775.457 735.389 774.585 734.338 773.674 733.525C773.08 733.009 772.387 732.513 771.595 732.513C770.803 732.513 769.991 733.227 770.169 733.981C769.258 733.247 767.674 733.624 767.179 734.675C765.951 734.338 766.387 731.7 765.119 731.779C763.792 731.859 764.664 734.655 763.377 735.032C762.802 735.21 762.268 734.714 761.891 734.258C760.287 732.335 758.842 730.272 757.614 728.091C758.901 728.15 760.604 727.893 760.822 726.623C761.099 725.057 759.158 724.482 758.941 723.153C758.683 721.606 760.149 720.099 760.98 718.969C761.971 717.64 762.644 715.518 761.357 714.467C761.139 715.696 759.832 716.609 758.604 716.41C757.891 716.291 757.277 715.855 756.703 715.439C752.643 712.484 748.841 709.192 745.316 705.622C745.257 705.959 745.237 706.297 745.158 706.614C743.157 705.84 740.662 707.824 740.979 709.945C741.078 710.6 741.375 711.294 741.078 711.869C740.801 712.405 740.147 712.603 739.553 712.623C732.84 713.019 729.731 701.121 723.156 702.548C717.453 703.798 723.889 713.436 718.938 712.067C718.383 711.909 717.869 711.552 717.294 711.611C716.581 711.671 716.086 712.365 715.789 713.019C714.165 716.529 714.502 720.297 714.918 724.025C715.512 729.301 715.71 734.576 715.888 739.93C716.086 746.494 717.908 745.899 722.938 748.239C724.919 749.171 729.988 751.61 730.939 753.613C732.404 756.687 729.533 761.189 726.463 761.804C724.562 762.18 722.324 761.605 720.879 762.874C719.809 763.807 719.651 765.373 719.096 766.682C718.542 767.991 716.918 769.161 715.789 768.308C716.938 772.116 719.552 775.289 721.473 778.779C723.413 782.269 724.681 786.573 722.978 790.182C720.225 795.992 711.71 796.508 707.927 801.704C707.65 802.08 707.393 802.517 707.353 802.993C707.274 804.262 708.68 805.015 709.809 805.61C712.878 807.217 715.215 809.953 716.72 813.027C718.364 816.398 719.948 819.889 720.166 823.696C720.265 825.164 720.265 826.75 720.166 828.297C720.423 828.356 720.681 828.376 720.938 828.356C722.78 826.691 722.78 823.776 722.166 821.376C721.532 818.976 720.403 816.636 720.443 814.138C720.522 809.537 724.74 805.848 729.216 804.857C733.691 803.865 738.365 804.956 742.781 806.166C745.019 806.78 747.356 807.435 749.633 806.998C751.91 806.562 754.109 804.698 754.049 802.358C754.485 803.925 755.158 805.769 756.742 806.126C758.089 806.443 759.376 805.491 760.327 804.52C761.277 803.528 762.208 802.378 763.535 802.041C764.862 801.704 766.585 802.854 766.149 804.163C767.298 803.726 768.426 803.29 769.575 802.854C770.189 806.701 770.803 810.548 771.397 814.395C772.387 813.781 773.377 813.186 774.367 812.571C774.803 813.86 775.239 815.149 775.674 816.418C777.912 816.676 777.496 812.274 779.595 811.441C780.289 811.163 781.041 811.381 781.754 811.579C783.715 812.155 785.655 812.749 787.616 813.325C789.002 813.741 789.319 812.968 790.765 812.868C792.943 814.852 795.319 816.616 797.854 818.104C799.557 819.115 801.478 820.027 803.439 819.69C805.379 819.333 807.063 817.132 806.172 815.367C808.013 814.653 809.736 816.973 809.657 818.957C809.578 820.94 808.568 822.804 808.607 824.787C808.647 826.77 810.687 828.932 812.39 827.92C814.429 830.518 815.717 833.711 816.034 837.003C816.232 839.026 817.36 841.941 819.162 841.009C818.469 842.952 817.776 845.054 818.39 847.017C819.004 848.981 821.578 850.389 823.183 849.12C823.4 850.428 823.638 851.737 823.856 853.046C825.955 851.777 828.787 851.817 830.846 853.185C831.896 853.879 832.827 854.91 834.074 855.128C835.203 855.327 836.312 854.791 837.441 854.692C841.738 854.335 844.431 859.868 848.709 860.403C850.432 857.508 849.937 853.482 847.56 851.083C851.264 849.179 851.719 843.111 848.333 840.691C850.095 838.53 853.541 842.714 856.115 841.643C857.106 841.227 857.601 840.156 858.333 839.363C859.046 838.569 860.452 838.074 861.106 838.926C861.977 840.077 860.334 841.366 859.205 842.258C855.581 845.114 857.284 852.094 861.799 852.987C860.274 854.057 860.868 856.536 862.175 857.885C863.482 859.214 865.284 860.086 866.235 861.673C867.76 864.211 866.611 867.582 867.661 870.359C868.295 872.024 869.641 873.274 870.592 874.781C873.265 878.965 871.503 880.135 870.017 883.685C868.889 886.402 871.206 889.218 873.344 891.241C873.721 891.598 874.156 891.974 874.671 892.014C875.404 892.054 875.978 891.419 876.592 891.042C878.374 889.991 880.592 891.042 882.652 891.221C884.414 891.399 886.157 890.904 887.88 890.527C893.207 889.357 898.732 889.099 904.139 889.773C904.851 889.872 905.604 889.971 906.277 889.714C907.644 889.198 908.139 887.493 909.327 886.66C910.891 885.549 913.545 885.946 914.317 884.181C914.733 883.269 914.357 882.218 914.159 881.226C913.981 880.234 914.139 878.965 915.07 878.608C917.783 877.577 919.625 875.277 922.496 874.84C928.675 873.908 934.853 872.956 941.032 872.024C942.953 866.928 940.874 861.197 938.081 856.536C933.784 849.298 927.744 843.091 920.635 838.609C919.189 837.697 917.644 836.805 916.674 835.377C915.605 833.81 915.367 831.767 914.199 830.28C913.03 828.793 911.169 828.079 909.584 827.028C905.049 824.013 903.109 817.648 905.148 812.611C906.495 809.279 909.268 806.76 911.941 804.341C914.416 804.143 914.337 805.809 916.773 806.265C918.932 806.661 921.169 806.086 923.269 805.412C932.477 802.457 941.012 797.38 948.003 790.678C949.963 790.678 951.587 788.774 952.221 786.929C952.439 786.315 952.558 785.601 953.112 785.284C953.528 785.046 954.043 785.085 954.518 785.105C958.716 785.244 962.241 782.17 965.291 779.295C965.846 778.779 966.42 778.144 966.361 777.391C966.281 776.36 964.954 775.864 963.964 776.122C962.974 776.379 962.182 777.133 961.331 777.688C959.548 778.838 957.271 779.215 955.231 778.68C956.716 777.708 958.202 776.717 959.687 775.745C960.241 775.388 960.816 774.991 961.132 774.416C962.34 772.255 959.271 769.994 959.152 767.515C959.053 765.254 961.331 763.727 963.311 762.676C965.172 761.685 967.014 760.693 968.876 759.701C969.628 757.56 972.381 756.191 974.48 757.004C975.292 757.322 976.143 757.897 976.935 757.56C978.302 756.985 977.569 754.962 977.728 753.494C977.985 750.976 981.074 750.004 983.589 749.707C993.016 748.616 1002.62 748.973 1011.95 750.738C1012.54 754.208 1017.43 754.109 1020.78 755.14C1025.69 756.667 1028.25 761.942 1030.27 766.682C1031.45 766.107 1032.42 765.076 1032.92 763.846C1035 763.212 1036.6 765.611 1037.71 767.495C1040.39 772.017 1044.7 775.527 1049.65 777.232C1051.79 777.966 1054.68 779.87 1053.34 781.694C1053.12 781.992 1052.8 782.21 1052.6 782.527C1051.81 783.836 1053.48 785.184 1054.6 786.216C1057.06 788.516 1057.34 792.244 1057.93 795.576C1058.53 798.907 1060.21 802.675 1063.54 803.231C1066.15 801.188 1067.56 797.718 1067.1 794.426C1068.51 794.981 1070.31 794.267 1070.92 792.879C1072.8 793.176 1074.68 793.494 1076.57 793.791C1074.72 795.08 1074.84 798.332 1076.78 799.463C1079.58 797.559 1081.73 794.703 1082.76 791.471C1084.13 793.533 1086.21 795.12 1088.57 795.853C1088.84 798.174 1089.14 800.494 1089.42 802.834C1087.02 801.446 1084.94 799.502 1083.4 797.202C1080.78 800.038 1079.32 803.885 1079.36 807.732C1078.07 806.582 1076.57 805.372 1074.86 805.531C1073.16 805.69 1071.87 808.208 1073.32 809.18C1072.45 809.12 1071.56 809.061 1070.68 808.982C1069.4 812.749 1076.11 815.01 1076.15 818.996C1076.19 822.189 1072.03 823.617 1068.86 823.22C1066.31 822.903 1063.71 821.951 1062.03 819.988C1058.58 824.113 1061.48 830.3 1064.41 834.802C1067.32 839.264 1070.21 843.706 1073.12 848.168C1074.43 850.171 1069.71 853.423 1071.16 855.346C1071.48 855.763 1071.95 855.981 1072.43 856.199C1075.02 857.389 1077.91 858.936 1078.55 861.732C1078.68 862.347 1078.7 863.021 1079.04 863.557C1079.38 864.092 1080.21 864.389 1080.65 863.933C1080.53 866.016 1082.21 867.741 1083.93 868.911C1085.66 870.081 1087.64 871.053 1088.73 872.837C1089.16 873.551 1089.44 874.404 1090.05 874.979C1090.73 875.614 1091.72 875.852 1092.35 876.526C1092.98 877.22 1093.12 878.231 1093.34 879.164C1094.51 884.022 1098.63 886.6 1102.69 889.535C1104.23 883.864 1105.78 878.192 1107.34 872.5C1107.5 871.886 1107.7 871.231 1108.21 870.854C1109.06 870.22 1110.27 870.696 1111.34 870.636C1113.62 870.537 1115.02 867.9 1114.89 865.619C1114.75 863.338 1113.6 861.256 1112.94 859.075C1112.23 856.715 1112.07 854.196 1112.49 851.757C1112.59 851.241 1112.81 850.627 1113.32 850.547C1113.62 850.508 1113.9 850.666 1114.13 850.825C1115.72 851.817 1117.32 852.808 1118.91 853.82C1119.3 854.077 1119.72 854.335 1119.94 854.752C1120.29 855.485 1119.88 856.417 1120.15 857.191C1120.41 857.905 1121.2 858.281 1121.74 858.817C1122.75 859.848 1122.83 861.435 1123.1 862.862C1123.36 864.29 1124.15 865.897 1125.58 866.035C1127.1 866.194 1128.19 864.667 1129.12 863.457C1131.68 860.146 1135.48 858.044 1139.24 856.239C1140.71 855.545 1142.23 854.831 1143.34 853.621C1144.43 852.411 1145.01 850.547 1144.23 849.12C1143.78 848.287 1142.95 847.652 1142.81 846.74C1142.71 846.105 1142.99 845.471 1143.24 844.876C1144.25 842.555 1145.3 840.215 1146.95 838.272C1148.59 836.348 1150.93 834.861 1153.46 834.861C1154.41 834.861 1155.38 835.059 1156.31 834.861C1157.24 834.663 1158.16 833.83 1157.98 832.878C1157.72 831.47 1155.4 830.915 1155.66 829.507L1155.7 829.606Z" fill="#DE1519" stroke="white" stroke-width="2" stroke-linecap="round" stroke-linejoin="round"/>
<path d="M505.3 583.007C506.627 580.806 506.983 577.692 509.34 576.681C511.676 575.67 514.172 577.514 516.31 578.942C522.608 583.166 530.47 584.217 537.54 586.954C543.857 589.393 549.6 593.18 556.016 595.322C559.462 596.472 563.284 597.107 566.65 595.719C569.72 594.45 573.166 592.586 575.641 590.345C576.453 589.611 577.206 588.818 578.136 588.262C580.037 587.152 583.246 586.418 584.949 588.124C585.899 589.075 585.959 589.948 587.285 590.087C588.612 590.246 589.959 590.008 591.306 590.087C593.048 590.206 594.751 590.94 596.058 592.11C597.761 593.637 599.247 596.056 601.524 595.818C603.663 595.6 605.069 592.982 607.208 593.042C607.128 595.56 609.129 597.682 611.307 598.951C613.485 600.221 615.961 600.954 618 602.442C618.337 602.68 618.674 602.977 618.733 603.393C618.832 604.048 618.198 604.524 617.763 605.039C616.357 606.705 617.763 609.779 619.921 609.819C620.911 609.839 621.862 609.343 622.872 609.323C624.872 609.283 626.793 611.088 628.655 610.374C629.546 610.017 630.16 609.144 631.071 608.788C632.892 608.093 634.695 609.819 635.744 611.445C636.814 613.071 638.081 615.034 640.022 615.014C640.972 615.014 641.665 614.38 642.537 614.241C643.666 614.063 644.557 614.558 645.725 613.983C646.537 613.587 647.21 612.912 647.983 612.436C649.785 611.306 652.003 611.227 654.082 610.81C656.161 610.394 658.399 609.402 659.112 607.399C660.063 604.722 657.785 601.47 659.251 599.031C659.865 598.019 660.875 597.543 662.003 597.206C660.736 596.532 659.191 596.353 657.944 597.048C657.508 597.305 657.013 597.662 656.538 597.484C655.884 597.226 655.983 596.314 655.864 595.62C655.666 594.569 654.736 593.855 653.963 593.121C651.211 590.543 649.765 586.914 648.478 583.364C646.161 576.998 644.081 570.256 645.072 563.553C645.428 561.153 646.676 558.357 649.092 558.179C649.507 558.139 649.943 558.179 650.3 557.961C650.676 557.703 650.815 557.227 650.914 556.771C651.547 553.935 652.181 551.119 652.815 548.283C654.042 548.719 655.548 548.224 656.241 547.113C656.696 546.399 656.993 545.368 657.825 545.249C658.221 545.189 658.597 545.368 658.993 545.408C660.459 545.546 661.37 543.781 661.33 542.314C661.271 540.846 660.677 539.399 660.934 537.951C661.667 533.846 658.676 530.237 657.746 526.191C657.607 525.616 657.468 525.021 657.072 524.605C656.181 523.653 654.478 524.069 653.666 525.101C652.854 526.132 652.716 527.52 652.597 528.809C650.913 526.985 649.21 525.16 647.527 523.336C648.656 520.857 652.933 520.401 652.973 517.684C652.973 517.168 652.815 516.672 652.755 516.157C652.597 514.808 653.171 513.48 653.33 512.131C653.468 510.783 652.874 509.097 651.527 508.918C651.25 508.383 652.3 508.165 652.755 508.562C655.112 510.584 657.191 505.646 655.805 503.564C654.775 502.017 652.973 501.184 651.607 499.915C654.637 499.102 658.023 502.057 657.607 505.17C657.429 506.598 656.597 507.887 656.34 509.295C655.904 511.655 657.191 514.213 659.33 515.264C660.063 512.706 659.726 509.97 659.488 507.312C658.894 500.867 658.993 493.906 662.657 488.572C663.192 487.798 663.805 487.025 663.905 486.093C664.004 485.161 663.251 484.09 662.34 484.269C660.815 484.566 661.211 487.382 659.746 487.858C659.429 486.827 658.954 485.835 658.3 484.982C657.369 485.617 655.785 486.053 655.389 484.982C655.231 484.546 655.409 484.05 655.587 483.614C656.458 481.373 656.973 478.637 655.548 476.673C654.815 475.682 653.706 475.047 652.815 474.194C651.923 473.342 651.25 472.013 651.785 470.902C652.28 469.851 653.587 469.494 654.736 469.514C655.884 469.534 657.053 469.832 658.181 469.613C659.488 469.356 660.578 468.463 661.548 467.571C662.934 466.302 664.261 464.913 665.112 463.228C665.944 461.542 666.221 459.5 665.449 457.774C664.875 456.505 663.825 455.533 662.994 454.423C662.162 453.312 661.548 451.845 662.063 450.556C662.855 448.553 665.984 448.493 667.469 450.06C668.954 451.627 669.093 454.046 668.756 456.168C668.42 458.31 667.707 460.392 667.766 462.554C667.786 463.585 668.004 464.616 667.885 465.647C667.766 466.678 667.231 467.749 666.241 468.086C664.954 468.543 663.251 467.63 662.281 468.582C661.924 468.939 661.786 469.475 661.706 469.99C661.389 472.251 661.885 474.611 663.073 476.554C663.746 477.645 664.657 478.954 664.043 480.064C663.647 480.778 662.776 481.036 662.083 481.453C661.389 481.869 660.776 482.781 661.251 483.455C661.568 483.892 662.162 483.951 662.696 483.991C664.756 484.07 666.558 483.138 668.519 483.317C669.707 483.436 670.935 483.733 672.103 483.416C674.083 482.88 675.173 480.58 675.014 478.537C674.856 476.495 673.767 474.651 672.638 472.925C671.509 471.2 670.301 469.475 669.846 467.472C669.469 465.766 669.687 464.001 669.905 462.276C670.598 457.06 671.925 451.865 672.598 446.669C673.212 441.969 672.024 436.833 671.053 432.232C669.053 422.832 665.944 413.016 668.38 403.378C669.093 400.562 670.261 397.865 670.836 395.009C671.469 391.915 671.37 388.743 671.727 385.609C672.162 381.782 673.232 378.054 674.301 374.365C675.509 370.181 676.737 365.996 677.945 361.812C678.559 359.69 679.212 357.509 680.579 355.803C681.45 354.712 682.579 353.86 683.49 352.829C684.242 351.976 684.856 351.004 685.47 350.032C688.322 345.511 691.174 340.989 694.025 336.468C695.233 334.564 696.461 332.601 696.917 330.38C697.55 327.366 696.699 324.272 695.847 321.297C693.669 313.722 691.491 306.126 689.312 298.551C688.936 297.242 688.302 295.755 688.005 294.426C687.55 294.486 687.134 294.743 686.857 295.12C686.223 294.545 685.451 294.129 684.639 293.93C684.5 294.486 684.361 295.041 684.223 295.576C683.53 296.469 682.064 295.537 681.747 294.446C681.43 293.375 681.569 292.086 680.817 291.253C680.539 290.936 680.143 290.678 680.044 290.262C679.965 289.825 680.282 289.409 680.559 289.072C681.47 288.021 682.381 286.97 683.272 285.939C684.005 285.086 684.916 284.154 686.045 284.233C687.312 284.312 688.183 285.78 687.906 287.029C687.649 288.279 686.54 289.211 685.351 289.627C685.827 289.806 686.183 290.282 686.223 290.797C686.243 291.194 686.084 291.571 686.124 291.967C686.243 293.375 688.56 293.335 689.391 292.205C690.223 291.055 690.203 289.528 690.679 288.199C690.956 287.426 691.411 286.712 691.867 286.018C693.451 283.618 695.015 281.199 696.6 278.799C696.996 279.216 697.233 279.771 697.273 280.326C697.887 279.553 698.937 279.315 699.848 278.918C700.758 278.522 701.689 277.709 701.531 276.737C701.353 275.726 700.184 275.349 699.154 275.15C697.729 276.558 695.669 277.391 693.629 277.59C690.758 277.867 687.906 277.114 685.134 276.38C684.084 274.437 681.153 273.842 679.45 275.25C678.698 275.864 678.202 276.777 677.49 277.431C676.757 278.105 675.588 278.482 674.816 277.867C674.163 277.352 674.024 276.32 673.291 275.964C672.479 275.567 671.509 276.32 671.153 277.153C670.796 277.986 670.756 278.958 670.301 279.751C669.113 281.853 665.707 281.933 664.716 284.134C664.4 284.828 664.38 285.681 663.825 286.236C662.102 287.981 658.676 284.154 656.993 285.919C655.944 287.029 656.756 289.528 655.29 289.944C654.835 290.063 654.379 289.905 653.924 289.786C652.874 289.528 651.745 289.587 650.735 289.964C648.874 290.638 647.507 292.225 645.784 293.177C644.062 294.129 641.388 294.129 640.596 292.304C643.269 298.313 626.258 294.307 624.199 293.454C625.486 294.168 625.724 296.112 624.912 297.361C624.1 298.611 622.575 299.205 621.09 299.285C618.515 299.424 615.921 298.095 614.515 295.933C612.594 295.973 613.069 298.967 612.495 300.812C611.802 303.013 608.297 303.509 607.01 301.585C606.633 301.03 606.376 300.276 605.722 300.118C605.069 299.939 604.455 300.494 603.999 301.01C602.217 303.092 600.613 305.571 598.039 306.483C595.464 307.396 591.82 305.274 592.632 302.676C592.038 304.58 586.969 303.231 585.642 303.073C582.117 302.676 579.74 301.962 577.879 298.531C576.215 295.457 575.067 291.65 571.898 290.222C568.908 288.854 565.383 290.262 562.67 292.126C558.828 294.743 555.64 298.313 553.442 302.418C553.224 302.815 553.026 303.33 553.263 303.727C553.461 304.064 553.897 304.163 554.254 304.322C555.759 304.976 556.194 307.039 555.62 308.586C555.046 310.132 553.739 311.263 552.471 312.314C551.897 312.81 551.204 313.325 550.451 313.226C548.451 312.968 547.817 308.843 546.075 309.855C544.609 311.62 546.213 314.356 545.679 316.577C544.926 319.651 540.233 321.674 541.5 324.569C543.144 324.411 544.827 325.442 545.441 326.969C546.055 328.496 545.52 330.42 544.213 331.411C541.203 333.711 536.193 330.836 533.262 333.255C532.133 334.187 531.539 335.774 530.192 336.349C529.499 336.646 528.648 336.627 528.014 337.063C526.945 337.777 526.945 339.324 526.806 340.613C526.509 343.191 525.063 345.63 522.925 347.097C521.222 346.324 518.231 347.772 517.38 349.457C517.102 349.993 516.964 350.627 516.588 351.103C516.152 351.678 515.479 352.015 514.825 352.333C511.181 354.098 507.537 355.863 503.894 357.628C503.082 358.024 502.25 358.421 501.596 359.016C499.616 360.801 499.557 364.231 501.299 366.234C501.557 366.532 501.854 366.829 501.973 367.206C502.329 368.436 500.606 369.189 499.339 369.13C495.953 368.971 492.685 367.166 490.744 364.39C490.289 363.755 489.893 363.022 489.2 362.665C488.546 362.308 487.774 362.328 487.021 362.248C483.655 361.832 481.1 359.095 478.862 356.537C478.387 355.982 477.872 355.347 477.892 354.613C477.951 353.523 479.159 352.353 478.446 351.52C478.248 351.302 477.951 351.183 477.674 351.103C475.337 350.469 472.664 351.46 471.317 353.483C471.238 356.16 468.782 356.676 466.624 358.282C463.059 360.939 460.069 364.469 458.445 368.614C457.514 370.994 456.801 373.83 454.484 374.9C451.514 376.249 448.167 373.691 444.919 373.949C443.553 374.068 442.206 374.682 440.84 374.484C439.315 374.266 438.048 373.056 436.523 372.878C434.245 372.6 432.225 374.603 429.948 374.583C428.601 374.583 427.374 373.849 426.027 373.77C423.413 373.631 421.235 376.09 420.759 378.668C420.086 382.178 422.561 384.875 423.076 388.326C423.967 394.216 424.859 400.106 425.77 406.015C426.225 409.069 426.106 413.135 423.175 414.067C421.136 414.701 419.096 413.273 417.017 412.758C413.214 411.806 408.66 414.979 409.016 418.886C409.135 420.115 409.65 421.246 409.868 422.475C410.58 426.679 407.452 430.467 404.54 433.561C403.57 434.592 402.441 435.702 401.035 435.782C399.055 435.881 396.797 434.175 394.857 433.739C392.005 433.105 388.876 433.243 386.044 433.937C384.321 434.354 382.579 435.008 380.836 434.77C380.757 434.77 380.697 434.731 380.638 434.711C377.766 435.048 375.172 437.408 374.736 440.303C372.122 441.215 369.568 438.975 367.706 436.952C364.716 433.68 361.706 430.388 358.716 427.116C358.438 432.708 349.487 435.921 351.032 441.315C351.527 443.06 353.072 444.269 354.517 445.38C357.983 447.998 361.448 450.615 364.914 453.233C365.29 452.499 365.667 451.785 366.043 451.052C367.944 454.225 370.221 457.179 372.816 459.817C374.38 461.403 376.043 462.891 377.707 464.378C379.707 467.591 384.262 469.673 386.816 472.489C389.173 475.087 391.015 477.586 393.906 479.826C394.639 480.382 395.352 480.957 396.084 481.512C402.006 486.093 407.966 490.714 414.561 494.283C416.403 495.275 418.304 496.207 419.829 497.635C422.264 499.876 423.512 503.088 424.918 506.103C428.285 513.42 432.839 520.103 437.513 526.628C441.196 531.764 447.276 534.401 451.118 539.3C453.019 541.739 453.455 543.524 456.187 545.289C458.762 546.954 461.95 547.252 464.129 549.651C465.693 551.357 466.426 553.875 468.446 555.006C469.456 555.581 470.664 555.7 471.693 556.235C473.139 556.969 474.09 558.397 475.08 559.686C477.496 562.879 480.486 565.655 483.991 567.579C487.061 569.244 490.863 570.652 491.833 574.004C495.675 576.483 494.17 581.421 497.992 583.939C499.26 584.772 500.903 585.189 502.329 585.784C503.577 585.189 504.666 584.257 505.399 583.047L505.3 583.007Z" fill="#DE1519" stroke="white" stroke-width="2" stroke-linecap="round" stroke-linejoin="round"/>
<path d="M720.225 823.637C719.988 819.829 718.423 816.319 716.779 812.968C715.274 809.894 712.938 807.138 709.868 805.551C708.739 804.956 707.313 804.203 707.412 802.933C707.452 802.457 707.709 802.041 707.987 801.644C711.769 796.449 720.285 795.933 723.037 790.123C724.74 786.513 723.473 782.21 721.532 778.72C719.591 775.229 716.997 772.057 715.849 768.249C716.977 769.102 718.581 767.932 719.156 766.623C719.71 765.314 719.869 763.767 720.938 762.815C722.384 761.526 724.621 762.121 726.523 761.744C729.592 761.13 732.464 756.628 730.998 753.554C730.048 751.551 724.958 749.112 722.998 748.18C717.987 745.84 716.165 746.435 715.948 739.871C715.789 734.516 715.571 729.241 714.977 723.966C714.561 720.238 714.225 716.47 715.849 712.96C716.146 712.306 716.641 711.612 717.354 711.552C717.928 711.493 718.443 711.85 718.997 712.008C723.948 713.357 717.512 703.739 723.215 702.489C729.79 701.042 732.899 712.96 739.613 712.563C740.207 712.524 740.86 712.325 741.137 711.81C741.435 711.235 741.137 710.541 741.038 709.886C740.722 707.764 743.197 705.761 745.217 706.555C745.296 706.237 745.316 705.9 745.375 705.563C744.504 704.691 743.633 703.798 742.801 702.886C741.791 701.775 740.741 700.625 739.335 700.129C737.652 699.534 735.791 700.05 733.988 699.991C729.83 699.832 726.127 696.104 726.008 691.939C725.988 691.007 725.73 689.678 724.819 689.778C724.542 689.797 724.324 689.976 724.067 690.055C723.037 690.412 722.027 689.5 721.314 688.647C718.166 684.939 715.017 681.23 711.868 677.522C710.838 676.293 709.749 675.004 709.432 673.437C709.096 671.831 709.135 669.49 707.492 669.312C706.937 669.252 706.402 669.53 705.848 669.609C704.323 669.828 703.016 668.598 701.986 667.468C695.946 660.864 690.124 654.022 684.579 646.982C676.895 637.245 673.034 626.695 669.192 614.896C668.717 613.428 668.004 611.723 666.499 611.445C666.281 612.199 665.667 612.833 664.934 613.071C664.34 610.335 663.766 607.578 663.172 604.841C664.202 606.349 665.231 607.856 666.261 609.363C666.657 606.686 666.36 603.929 665.39 601.411C664.815 599.884 663.944 598.416 662.617 597.464C662.439 597.345 662.241 597.266 662.063 597.167C660.934 597.504 659.924 598 659.31 598.991C657.845 601.43 660.102 604.683 659.171 607.36C658.478 609.363 656.221 610.354 654.141 610.771C652.062 611.187 649.844 611.286 648.042 612.397C647.27 612.873 646.596 613.547 645.784 613.944C644.616 614.519 643.725 614.023 642.596 614.202C641.705 614.34 641.032 614.975 640.081 614.975C638.14 614.975 636.853 613.032 635.804 611.405C634.734 609.779 632.952 608.054 631.13 608.748C630.239 609.105 629.625 609.978 628.714 610.335C626.852 611.068 624.932 609.244 622.931 609.283C621.941 609.283 620.991 609.799 619.981 609.779C617.802 609.74 616.416 606.666 617.822 605C618.238 604.504 618.892 604.008 618.793 603.354C618.733 602.957 618.396 602.66 618.06 602.402C616.02 600.915 613.545 600.181 611.366 598.912C609.188 597.643 607.188 595.521 607.267 593.002C605.128 592.943 603.722 595.56 601.583 595.779C599.306 596.017 597.821 593.597 596.118 592.07C594.811 590.9 593.108 590.186 591.365 590.047C590.038 589.948 588.692 590.186 587.345 590.047C586.018 589.889 585.959 589.036 585.008 588.084C583.325 586.379 580.097 587.132 578.196 588.223C577.265 588.758 576.493 589.571 575.701 590.305C573.225 592.546 569.779 594.41 566.71 595.679C563.363 597.068 559.521 596.433 556.075 595.283C549.659 593.141 543.916 589.353 537.599 586.914C530.509 584.177 522.667 583.146 516.37 578.902C514.251 577.475 511.756 575.63 509.399 576.642C507.042 577.653 506.686 580.767 505.359 582.968C504.646 584.158 503.557 585.09 502.29 585.704C503.696 586.279 504.904 586.993 505.359 588.421C504.428 589.909 501.854 587.747 500.408 588.739C499.438 589.413 499.794 590.999 500.626 591.852C501.458 592.685 502.626 593.181 503.359 594.113C504.092 595.045 504.032 596.77 502.884 597.068C502.309 597.226 501.735 596.949 501.161 596.79C498.923 596.155 496.309 597.563 495.576 599.765C495.358 597.008 492.249 594.866 489.596 595.66C489.556 596.532 489.497 597.405 489.457 598.257C486.962 598.813 483.932 600.003 483.813 602.541C487.576 601.351 491.972 602.402 494.784 605.178C495.675 604.365 497.279 604.544 497.973 605.555C497.458 606.329 497.359 607.34 497.695 608.193C500.745 606.666 504.983 608.847 505.498 612.238C505.973 615.272 503.894 618.029 502.646 620.845C502.389 621.42 502.191 622.134 502.587 622.61C503.656 623.919 505.696 620.924 507.141 621.777C507.419 624.097 505.28 626.061 503.062 626.774C500.844 627.488 498.428 627.409 496.19 628.024C495.358 628.262 494.487 628.639 494.012 629.372C492.804 631.276 495.042 633.497 496.982 634.647C496.269 636.749 494.962 638.653 493.24 640.041C492.942 641.787 488.546 641.925 488.625 643.69C488.685 644.88 490.348 645.217 491.002 646.209C491.457 646.883 491.358 647.776 491.319 648.589C491.022 654.677 494.249 660.388 498.091 665.128C500.884 668.558 504.112 671.831 505.478 676.055C505.755 676.887 505.953 677.8 506.547 678.454C507.28 679.247 508.409 679.505 509.478 679.703C513.082 680.398 516.706 681.072 520.311 681.766C525.816 682.817 531.856 684.185 535.104 688.746C539.064 694.319 544.055 697.869 546.748 704.155C547.164 705.127 547.798 706.277 548.847 706.198C550.174 706.079 550.352 704.274 550.471 702.945C550.828 699.197 554.214 695.965 557.977 695.767C557.66 694.597 557.343 693.426 557.006 692.237C557.779 693.288 559.363 693.466 560.571 692.97C561.779 692.475 562.71 691.483 563.601 690.511C564.749 689.262 565.898 687.993 567.046 686.743C567.264 686.505 567.482 686.268 567.581 685.97C568.155 684.384 565.522 683.789 563.878 684.165C564.67 683.471 565.442 682.777 566.235 682.083C565.264 681.191 564.116 680.497 562.868 680.041C563.066 679.108 563.759 678.315 564.63 677.998C559.66 672.981 549.758 675.341 545.699 669.57C544.59 668.003 544.015 665.901 542.332 664.949C541.52 664.493 540.53 664.374 539.758 663.878C537.896 662.688 537.936 660.011 537.817 657.81C537.619 654.459 536.53 651.186 534.708 648.37C536.252 648.053 537.698 649.342 538.351 650.79C539.005 652.237 539.144 653.864 539.777 655.311C541.005 658.167 544.213 660.011 547.303 659.654C548.986 659.456 550.887 658.722 552.253 659.753C553.085 660.388 553.402 661.499 554.115 662.252C555.6 663.819 558.234 663.383 560.175 664.374C563.502 666.08 566.155 674.706 569.383 674.884C570.591 674.944 571.7 674.111 572.908 674.111C574.413 674.111 575.582 675.42 576.512 676.59C578.037 678.494 579.562 680.417 581.087 682.321C583.226 684.998 585.503 688.469 584.157 691.622C583.721 692.633 582.968 693.466 582.552 694.478C581.879 696.163 582.295 698.126 583.226 699.693C584.157 701.26 585.523 702.489 586.87 703.699C587.662 707.586 591.721 708.478 595.662 708.934C599.286 709.371 602.93 709.787 606.554 710.223C609.525 710.58 612.554 710.957 615.228 712.286C617.901 713.634 620.179 716.153 620.377 719.127C629.665 720.535 637.725 726.068 645.448 731.462C646.893 732.474 648.359 733.505 649.428 734.913C650.973 736.975 652.617 740.188 655.013 739.276C659.092 743.024 663.449 747.387 663.706 752.92C663.865 756.231 662.697 760.237 665.212 762.419C661.429 764.402 660.617 769.359 660.221 773.603C657.765 773.286 655.171 774.615 653.983 776.796C652.795 778.978 653.092 781.873 654.696 783.777C656.815 786.315 660.637 786.831 662.855 789.29C664.479 791.094 665.35 793.95 667.707 794.505C669.687 794.961 671.568 793.494 673.569 793.177C678.044 792.443 680.341 797.52 684.104 798.888C691.372 801.545 690.144 793.89 689.589 789.171C689.451 787.941 689.273 786.612 688.441 785.7C687.668 784.828 686.46 784.51 685.371 784.114C680.539 782.349 676.559 778.402 674.737 773.603C676.48 774 678.202 772.493 679.965 772.116C681.708 771.739 683.787 771.759 684.975 773.108C685.866 774.119 686.045 775.666 687.114 776.479C688.56 777.589 690.936 776.796 692.243 778.065C692.916 778.74 693.233 779.929 694.184 780.068C695.095 780.207 696.223 779.295 696.778 780.029C697.016 780.346 696.936 780.762 696.877 781.159C696.521 784.134 699.016 787.168 702.006 787.346C700.501 787.326 700.283 789.627 701.095 790.896C701.887 792.165 703.214 793.375 702.976 794.862C702.62 797.123 699.055 797.559 698.481 799.78C698.105 801.228 699.234 802.656 700.442 803.528C702.719 805.194 705.472 806.047 707.927 807.415C710.383 808.784 712.7 810.985 712.918 813.801C715.908 816.954 717.75 818.917 717.631 823.26C717.611 824.073 717.473 824.906 717.631 825.699C717.888 826.949 718.978 827.94 720.205 828.198C720.324 826.651 720.304 825.065 720.205 823.597L720.225 823.637Z" fill="#DE1519" stroke="white" stroke-width="2" stroke-linecap="round" stroke-linejoin="round"/>
</svg>
